<svg width="20" height="19" viewBox="0 0 20 19" fill="none" xmlns="http://www.w3.org/2000/svg">
<path d="M17.5 0.75H2.5C1.09375 0.75 0 1.88281 0 3.25V15.75C0 17.1562 1.09375 18.25 2.5 18.25H17.5C18.8672 18.25 20 17.1562 20 15.75V3.25C20 1.88281 18.8672 0.75 17.5 0.75ZM15 2V8.875H5V2H15ZM1.25 3.25C1.25 2.58594 1.79688 2 2.5 2H3.75V5.125H1.25V3.25ZM1.25 6.375H3.75V8.875H1.25V6.375ZM1.25 10.125H3.75V12.625H1.25V10.125ZM2.5 17C1.79688 17 1.25 16.4531 1.25 15.75V13.875H3.75V17H2.5ZM5 17V10.125H15V17H5ZM18.75 15.75C18.75 16.4531 18.1641 17 17.5 17H16.25V13.875H18.75V15.75ZM18.75 12.625H16.25V10.125H18.75V12.625ZM18.75 8.875H16.25V6.375H18.75V8.875ZM18.75 5.125H16.25V2H17.5C18.1641 2 18.75 2.58594 18.75 3.25V5.125Z" fill="white"/>
</svg>
